HIERARCHY
ROOT root
{
	OFFSET 0.000000 0.000000 0.000000
	CHANNELS 6 Xposition Yposition Zposition Zrotation Yrotation Xrotation
	JOINT lhip
	{
		OFFSET 0.058581 -0.082280 -0.017664
		CHANNELS 3 Zrotation Yrotation Xrotation
		JOINT lknee
		{
			OFFSET 0.043451 -0.386469 0.008037
			CHANNELS 3 Zrotation Yrotation Xrotation
			JOINT lankle
			{
				OFFSET -0.014790 -0.426874 -0.037428
				CHANNELS 3 Zrotation Yrotation Xrotation
				JOINT ltoe
				{
					OFFSET 0.041054 -0.060286 0.122042
					CHANNELS 3 Zrotation Yrotation Xrotation
					End Site
					{
						OFFSET 0.000000 0.000000 0.000000
					}
				}
			}
		}
	}
	JOINT rhip
	{
		OFFSET -0.060310 -0.090513 -0.013543
		CHANNELS 3 Zrotation Yrotation Xrotation
		JOINT rknee
		{
			OFFSET -0.043257 -0.383688 -0.004843
			CHANNELS 3 Zrotation Yrotation Xrotation
			JOINT rankle
			{
				OFFSET 0.019056 -0.420046 -0.034562
				CHANNELS 3 Zrotation Yrotation Xrotation
				JOINT rtoe
				{
					OFFSET -0.034840 -0.062106 0.130323
					CHANNELS 3 Zrotation Yrotation Xrotation
					End Site
					{
						OFFSET 0.000000 0.000000 0.000000
					}
				}
			}
		}
	}
	JOINT lowerback
	{
		OFFSET 0.004439 0.124404 -0.038385
		CHANNELS 3 Zrotation Yrotation Xrotation
		JOINT upperback
		{
			OFFSET 0.004488 0.137956 0.026820
			CHANNELS 3 Zrotation Yrotation Xrotation
			JOINT chest
			{
				OFFSET -0.002265 0.056032 0.002855
				CHANNELS 3 Zrotation Yrotation Xrotation
				JOINT lowerneck
				{
					OFFSET -0.013390 0.211636 -0.033468
					CHANNELS 3 Zrotation Yrotation Xrotation
					JOINT upperneck
					{
						OFFSET 0.010113 0.088937 0.050410
						CHANNELS 3 Zrotation Yrotation Xrotation
						End Site
						{
							OFFSET 0.000000 0.000000 0.000000
						}
					}
				}
				JOINT lclavicle
				{
					OFFSET 0.071702 0.114000 -0.018898
					CHANNELS 3 Zrotation Yrotation Xrotation
					JOINT lshoulder
					{
						OFFSET 0.122921 0.045205 -0.019046
						CHANNELS 3 Zrotation Yrotation Xrotation
						JOINT lelbow
						{
							OFFSET 0.255332 -0.015649 -0.022946
							CHANNELS 3 Zrotation Yrotation Xrotation
							JOINT lwrist
							{
								OFFSET 0.265709 0.012698 -0.007375
								CHANNELS 3 Zrotation Yrotation Xrotation
								End Site
								{
									OFFSET 0.000000 0.000000 0.000000
								}
							}
						}
					}
				}
				JOINT rclavicle
				{
					OFFSET -0.082954 0.112472 -0.023707
					CHANNELS 3 Zrotation Yrotation Xrotation
					JOINT rshoulder
					{
						OFFSET -0.113228 0.046853 -0.008472
						CHANNELS 3 Zrotation Yrotation Xrotation
						JOINT relbow
						{
							OFFSET -0.260127 -0.014369 -0.031269
							CHANNELS 3 Zrotation Yrotation Xrotation
							JOINT rwrist
							{
								OFFSET -0.269108 0.006794 -0.006027
								CHANNELS 3 Zrotation Yrotation Xrotation
								End Site
								{
									OFFSET 0.000000 0.000000 0.000000
								}
							}
						}
					}
				}
			}
		}
	}
}
MOTION
Frames: 16
Frame Time: 0.033333
2.334045 0.703241 0.997954 -83.881436 -0.810283 83.530765 -3.017642 -1.084600 3.904631 -0.668540 -11.607270 1.857211 2.665298 9.189175 -7.437302 0.000000 -0.000000 0.000000 -1.815199 -3.996588 -0.285158 -2.285625 -2.480790 11.337776 1.352007 -10.973724 -11.747339 0.000000 -0.000000 0.000000 1.566105 3.240887 5.842267 -2.189439 -0.963490 4.935778 -1.582510 2.984887 -4.786109 -1.983159 27.141427 -7.214081 -1.834844 27.327798 -0.455640 -29.446603 -8.682215 0.700251 -50.198549 -4.138236 14.210536 -0.995652 -22.217654 9.881548 -3.513644 -7.629485 3.950188 27.314143 10.175010 8.758948 54.912587 5.005791 18.578943 -1.148568 25.003509 10.454064 3.949643 5.522468 7.962557 
2.333661 0.703423 0.998164 -83.831369 -0.719067 83.540287 -2.876236 -1.108757 3.939427 -0.705000 -11.704671 1.839447 2.035286 9.162627 -7.071983 0.000000 -0.000000 0.000000 -1.602620 -4.130285 -0.068862 -2.693393 -2.923546 11.006209 1.532272 -10.416895 -11.396154 0.000000 -0.000000 0.000000 1.909653 3.100039 6.040747 -2.213822 -0.973517 4.738099 -1.563206 2.599289 -4.634544 -2.717675 27.248990 -7.221333 -1.955755 27.360679 -0.843701 -29.535212 -8.150353 0.357118 -50.187098 -4.000310 14.040993 -1.206481 -22.382657 10.493093 -3.603673 -7.803557 3.731640 27.052595 10.431722 8.944070 55.191705 5.329113 18.537880 -1.286173 24.802017 10.621012 3.615626 5.782366 8.276235 
2.333198 0.703673 0.998213 -83.785812 -0.738393 83.504687 -2.945700 -1.075543 4.063905 -0.581186 -11.735132 1.747131 2.015906 9.166485 -7.123008 0.000000 -0.000000 0.000000 -1.649556 -4.176848 0.011886 -2.720498 -3.029987 11.022399 1.692835 -10.455445 -11.531388 0.000000 -0.000000 0.000000 1.868200 3.050740 6.096740 -2.211479 -0.964912 4.686078 -1.549342 2.674754 -4.502257 -2.851498 27.207021 -7.311075 -1.962384 27.217080 -0.908785 -29.494163 -8.157078 0.351131 -50.307942 -4.003890 14.042247 -1.152740 -22.451981 10.524197 -3.673956 -7.823650 3.761838 27.082235 10.337793 8.936917 55.179264 5.205887 18.421239 -1.384169 25.134035 10.522515 3.708154 5.705996 8.247380 
2.333197 0.704150 0.998290 -83.918143 -0.717610 83.420004 -2.860631 -0.981403 4.194033 -0.704506 -11.809528 1.763849 1.993139 9.321510 -7.126715 0.000000 -0.000000 0.000000 -1.556928 -4.031845 0.097483 -2.782638 -3.009166 11.057384 1.502353 -10.514341 -11.409112 0.000000 -0.000000 0.000000 1.879765 2.943945 6.459715 -2.237655 -0.793833 4.504722 -1.527084 2.729148 -4.645892 -2.664433 27.120309 -7.411873 -1.799903 27.426851 -0.496118 -29.529675 -7.992273 0.286328 -50.366210 -3.988274 14.095214 -1.178105 -22.481781 10.656594 -3.386469 -7.827632 3.695694 27.004213 10.172120 8.841014 55.258065 5.212958 18.570722 -1.245609 25.101023 10.768156 3.545747 5.728769 8.193443 
2.332411 0.704107 0.998187 -83.767117 -0.667310 83.489645 -2.800274 -0.982970 4.204491 -0.625508 -11.773904 1.612208 1.967276 9.164394 -7.055113 0.000000 -0.000000 0.000000 -1.554349 -4.166475 0.190683 -2.742940 -3.110112 10.870157 1.583633 -10.545469 -11.323025 0.000000 -0.000000 0.000000 1.922172 2.963966 6.336797 -2.208709 -0.861313 4.235701 -1.499674 2.622350 -4.399503 -2.578706 27.152818 -7.136835 -1.868078 27.429187 -0.571224 -29.658794 -8.037878 0.426304 -50.331736 -3.946772 14.063284 -1.046345 -22.365084 10.733608 -3.378746 -7.941349 3.665689 26.973734 10.113833 8.804797 55.285478 5.054663 18.574860 -1.242129 25.245293 10.997465 3.571849 5.712661 8.115516 
2.332215 0.704119 0.998067 -83.827386 -0.695485 83.553635 -2.833109 -1.037879 4.166559 -0.654210 -11.742732 1.665799 1.965390 9.206320 -7.141977 0.000000 -0.000000 0.000000 -1.545788 -4.076506 0.129390 -2.736598 -2.961373 10.881004 1.550882 -10.406378 -11.288936 0.000000 -0.000000 0.000000 1.898929 2.967575 6.161966 -2.194761 -0.912600 4.458502 -1.529487 2.673387 -4.467258 -2.503530 27.186192 -6.932971 -1.897198 27.448950 -0.751890 -29.557636 -8.048416 0.326858 -50.433451 -3.933684 14.041059 -1.048510 -22.367468 10.407586 -3.702839 -7.664175 3.631970 26.857226 10.195789 8.821865 55.399876 5.210694 18.555676 -1.232448 25.155377 10.835359 3.772001 5.575225 8.229682 
2.331999 0.704054 0.998227 -83.844015 -0.690235 83.575998 -2.849032 -1.032220 4.157349 -0.631828 -11.696799 1.676769 2.067386 9.277414 -7.172602 0.000000 -0.000000 0.000000 -1.555628 -4.103545 0.104627 -2.713709 -2.954979 10.894954 1.597234 -10.400934 -11.239836 0.000000 -0.000000 0.000000 1.855256 3.012144 6.177668 -2.135876 -0.867024 4.410932 -1.457050 2.572915 -4.483563 -2.589043 27.082415 -6.898998 -1.946053 27.480164 -0.814454 -29.593058 -8.080027 0.435369 -50.474484 -3.896489 14.038665 -1.022630 -22.331673 10.404231 -3.758531 -7.704988 3.664139 26.806906 10.249510 8.868252 55.373307 5.141905 18.545312 -1.230669 25.185599 10.820721 3.773858 5.622147 8.205647 
2.331344 0.703930 0.998237 -83.785385 -0.622399 83.619029 -2.730411 -0.998699 4.146894 -0.707229 -11.717951 1.686551 2.110324 9.152005 -7.188616 0.000000 -0.000000 0.000000 -1.484739 -4.199621 0.173875 -2.727797 -2.922382 10.775889 1.645907 -10.381276 -11.228722 0.000000 -0.000000 0.000000 1.823571 3.057162 5.985279 -2.051772 -0.956744 4.623058 -1.400149 2.568376 -4.573032 -2.612381 27.095297 -6.751283 -2.017400 27.398958 -1.177990 -29.567944 -8.113966 0.429212 -50.527890 -3.920380 14.002657 -1.128823 -22.283838 10.252086 -4.002936 -7.561549 3.673989 26.776026 10.292813 8.791785 55.350718 4.957621 18.513902 -1.288869 25.304797 10.751972 3.990255 5.586993 8.174176 
2.330880 0.703877 0.998254 -83.832277 -0.598421 83.597064 -2.699242 -0.987995 4.271532 -0.716565 -11.741658 1.566186 2.043037 9.208973 -7.170828 0.000000 -0.000000 0.000000 -1.424008 -4.177175 0.239050 -2.816595 -2.954707 10.772379 1.551984 -10.477379 -11.264305 0.000000 -0.000000 0.000000 1.836581 3.016799 6.064484 -2.078538 -0.976394 4.524114 -1.421921 2.631866 -4.591676 -2.587196 27.073219 -6.768007 -1.948232 27.414412 -1.206551 -29.517838 -8.069143 0.396972 -50.539190 -3.881526 13.950522 -1.098228 -22.388282 10.180548 -4.163883 -7.393719 3.679037 26.800549 10.359282 8.945816 55.400383 4.947717 18.541379 -1.379270 25.315093 10.698883 4.024406 5.575861 8.146848 
2.330211 0.703606 0.998353 -83.919672 -0.577325 83.586461 -2.660293 -0.937354 4.376673 -0.749394 -11.773509 1.538549 2.001366 9.178431 -7.202774 0.000000 -0.000000 0.000000 -1.413975 -4.193203 0.359562 -2.809898 -2.891932 10.641431 1.672986 -10.401322 -11.385480 0.000000 -0.000000 0.000000 1.878553 3.011707 6.193943 -2.103990 -0.959662 4.369578 -1.417838 2.562191 -4.611809 -2.521665 27.163580 -6.785127 -1.902755 27.570733 -1.119978 -29.533446 -8.000458 0.313358 -50.585711 -3.633236 14.136618 -1.040536 -22.412839 10.659212 -3.799081 -7.803520 3.940575 26.823279 10.269122 8.859553 55.386434 4.967210 18.557289 -1.292460 25.265354 10.929746 3.898664 5.797982 8.425241 
2.330112 0.703266 0.998680 -83.951873 -0.587750 83.583704 -2.696679 -0.911068 4.435816 -0.697656 -11.673732 1.471438 2.034795 9.145373 -7.262027 0.000000 -0.000000 0.000000 -1.462820 -4.180177 0.360480 -2.743940 -2.806158 10.663330 1.632710 -10.350014 -11.260981 0.000000 -0.000000 0.000000 1.803259 3.081076 6.246742 -2.071111 -0.887789 4.243106 -1.331306 2.504701 -4.516586 -2.522934 26.858033 -6.517921 -2.119570 27.311049 -1.676278 -29.535896 -8.061811 0.351704 -50.550094 -3.630979 14.172623 -1.144467 -22.557544 10.659953 -3.828351 -7.608885 3.799800 26.735569 10.217782 8.801886 55.360196 4.877049 18.546132 -1.151659 25.357442 10.949063 3.918016 5.636893 8.181503 
2.329933 0.703005 0.998762 -83.972102 -0.586076 83.610975 -2.710583 -0.921307 4.403727 -0.717948 -11.739653 1.531394 2.032054 9.217418 -7.243956 0.000000 -0.000000 0.000000 -1.465143 -4.143434 0.313508 -2.747192 -2.771443 10.742828 1.612955 -10.445701 -11.390996 0.000000 -0.000000 0.000000 1.765198 3.076177 6.202163 -2.040081 -0.889189 4.228017 -1.299708 2.494079 -4.503099 -2.520792 26.784682 -6.389898 -2.104595 27.311888 -1.815960 -29.483997 -8.045670 0.296690 -50.570262 -3.679016 14.032085 -1.219215 -22.615671 10.233713 -4.329611 -7.127117 3.683557 26.659140 10.245985 8.756816 55.406330 4.823474 18.550780 -1.127545 25.386325 10.957907 4.198619 5.524004 8.340181 
2.329847 0.702768 0.998863 -83.980358 -0.636726 83.614446 -2.784402 -0.894751 4.429654 -0.701656 -11.787665 1.481469 2.113280 9.297035 -7.383632 0.000000 -0.000000 0.000000 -1.488660 -4.109415 0.335003 -2.852988 -2.795009 10.701148 1.629986 -10.545547 -11.310547 0.000000 -0.000000 0.000000 1.660694 3.040381 6.237250 -2.015238 -0.845962 4.233235 -1.279350 2.479220 -4.533089 -2.448926 26.732481 -6.577108 -1.988469 27.379354 -1.586939 -29.635343 -8.080459 0.404071 -50.413521 -3.641752 14.215616 -1.215355 -22.601504 10.739229 -3.984726 -7.395439 3.972256 26.781935 10.263905 8.819266 55.297770 4.790526 18.581248 -1.170535 25.415307 10.933115 3.972826 5.581628 8.244186 
2.329446 0.702382 0.998844 -83.841651 -0.652895 83.706722 -2.806932 -0.956178 4.366760 -0.758333 -11.844280 1.474060 2.096619 9.207194 -7.272938 0.000000 -0.000000 0.000000 -1.534388 -4.168216 0.292174 -2.810892 -2.753437 10.675045 1.578896 -10.466717 -11.362051 0.000000 -0.000000 0.000000 1.612164 3.063839 6.053434 -1.981335 -0.937986 4.264728 -1.260893 2.393221 -4.497500 -2.398307 26.757982 -6.585023 -1.843746 27.330174 -1.423121 -29.695897 -8.146068 0.493544 -50.325012 -3.675692 14.001531 -1.207478 -22.646486 10.336641 -4.195151 -7.209755 3.696400 26.788745 10.266032 8.849235 55.291198 4.805523 18.550601 -1.204633 25.386230 10.967529 4.109875 5.613078 8.343388 
2.329996 0.702098 0.998731 -84.042168 -0.711935 83.789035 -2.882820 -0.932893 4.205645 -0.840063 -11.754149 1.571839 2.156657 9.325686 -7.305664 0.000000 -0.000000 0.000000 -1.592912 -3.955158 0.012620 -2.895457 -2.854799 10.961639 1.577933 -10.524812 -11.394641 0.000000 -0.000000 0.000000 1.617200 3.038756 6.310494 -2.036973 -0.721602 3.842630 -1.250798 2.432271 -4.451017 -2.354413 26.613785 -6.540445 -1.784560 27.329621 -1.361048 -29.644154 -8.137679 0.476983 -50.463637 -3.681532 14.187332 -1.141586 -22.536183 10.664902 -4.180080 -7.461141 3.828726 26.628128 10.216449 8.806876 55.462629 4.755262 18.609714 -1.228993 25.354730 11.125116 4.062237 5.725035 8.138309 
2.329682 0.701584 0.998777 -83.962985 -0.678899 83.881756 -2.938939 -1.004678 4.138003 -0.748092 -11.805306 1.542660 2.205174 9.370341 -7.264641 0.000000 -0.000000 0.000000 -1.575215 -4.002277 -0.015739 -2.893101 -2.792956 10.844150 1.692746 -10.593581 -11.287974 0.000000 -0.000000 0.000000 1.668091 2.997593 6.123263 -2.011028 -0.866251 4.071307 -1.284843 2.484751 -4.537336 -2.479254 26.638447 -6.640233 -1.792991 27.328455 -1.392103 -29.399618 -8.001364 0.327632 -50.768882 -3.804024 14.261210 -1.085973 -22.351516 10.669085 -4.383642 -7.400504 4.024680 26.527376 10.088256 8.621608 55.564079 4.824464 18.590091 -1.137838 25.184510 11.006697 4.079633 5.666332 8.161161 
